<?xml version="1.0" standalone="no"?>
<!DOCTYPE svg PUBLIC "-//W3C//DTD SVG 20010904//EN"
 "http://www.w3.org/TR/2001/REC-SVG-20010904/DTD/svg10.dtd">
<svg version="1.0" xmlns="http://www.w3.org/2000/svg"
 width="256.000000pt" height="256.000000pt" viewBox="0 0 256.000000 256.000000"
 preserveAspectRatio="xMidYMid meet">
<metadata>
Created by potrace 1.11, written by Peter Selinger 2001-2013
</metadata>
<g transform="translate(0.000000,256.000000) scale(0.100000,-0.100000)"
fill="#000000" stroke="none">
<path d="M466 2375 c-79 -38 -126 -108 -140 -205 -3 -23 -6 -219 -5 -434 0
-215 0 -400 0 -411 0 -11 0 -67 0 -125 0 -58 1 -109 1 -115 0 -5 -1 -161 -1
-345 -1 -479 2 -506 72 -578 54 -57 102 -76 187 -76 114 0 184 44 232 149 24
52 23 40 28 566 0 9 35 50 77 92 159 153 227 217 233 217 5 0 28 -33 132 -195
25 -38 80 -124 123 -190 196 -301 228 -350 282 -437 96 -156 159 -200 291
-204 91 -3 150 16 198 63 64 61 82 135 57 231 -24 95 -23 93 -449 700 -120
173 -230 332 -243 354 l-24 41 69 65 c439 410 491 464 520 527 56 121 14 247
-101 308 -53 28 -182 30 -237 3 -33 -16 -138 -117 -345 -332 -90 -94 -399
-417 -502 -524 l-81 -85 -1 40 c0 22 0 182 -1 356 0 178 -4 338 -10 365 -11
49 -48 119 -77 142 -78 62 -201 78 -285 37z"/>
</g>
</svg>
