<?xml version="1.0" standalone="no"?>
<!DOCTYPE svg PUBLIC "-//W3C//DTD SVG 20010904//EN"
 "http://www.w3.org/TR/2001/REC-SVG-20010904/DTD/svg10.dtd">
<svg version="1.0" xmlns="http://www.w3.org/2000/svg"
 width="177.000000pt" height="177.000000pt" viewBox="0 0 177.000000 177.000000"
 preserveAspectRatio="xMidYMid meet">
<metadata>
Created by potrace 1.11, written by Peter Selinger 2001-2013
</metadata>
<g transform="translate(0.000000,177.000000) scale(0.100000,-0.100000)"
fill="#000000" stroke="none">
<path d="M287 1527 c-31 -10 -57 -23 -57 -28 0 -5 -6 -9 -13 -9 -14 0 -83 -69
-114 -115 -66 -98 -62 -266 9 -349 46 -55 102 -73 198 -68 32 2 110 52 110 69
0 7 4 13 8 13 9 0 42 64 42 80 0 5 -9 14 -20 20 -16 9 -24 7 -43 -10 -36 -35
-69 -48 -118 -46 -85 3 -139 62 -139 154 0 132 109 217 230 178 14 -5 49 -26
78 -48 104 -77 178 -93 254 -55 l46 23 -16 -24 c-9 -14 -17 -30 -18 -36 -1 -6
-8 -38 -16 -71 -18 -81 -15 -202 8 -360 19 -135 24 -279 10 -343 -18 -91 -97
-187 -170 -209 -31 -10 -98 -10 -138 -1 -55 13 -103 84 -107 158 -2 40 -13 59
-34 60 -4 0 -35 -27 -69 -59 l-62 -59 29 -38 c84 -110 173 -154 303 -150 149
4 277 95 356 254 35 69 58 160 61 244 2 74 3 77 31 83 11 2 28 7 39 10 16 5
24 -3 43 -44 13 -28 23 -54 24 -58 1 -5 7 -23 15 -40 7 -18 11 -33 8 -33 -3 0
-1 -8 4 -18 5 -9 11 -30 14 -47 10 -59 57 -191 87 -242 34 -59 85 -102 133
-112 50 -11 131 8 180 41 31 21 107 98 107 108 0 6 3 10 8 10 4 0 15 13 24 30
16 29 16 30 -9 48 l-26 19 -56 -58 c-97 -102 -167 -108 -208 -18 -50 107 -63
140 -63 152 0 7 -4 17 -9 23 -5 5 -23 47 -40 93 -18 45 -42 99 -55 120 -23 36
-72 84 -91 90 -14 4 -10 15 30 67 19 25 35 52 35 60 0 8 4 14 8 14 6 0 44 79
48 100 0 3 8 22 17 42 10 21 17 41 17 46 0 20 108 206 137 236 61 62 161 35
178 -47 8 -33 22 -57 35 -57 15 0 110 98 110 114 0 9 -3 16 -8 16 -4 0 -19 11
-33 24 -75 70 -184 85 -277 40 -85 -41 -145 -106 -193 -209 -23 -48 -42 -93
-43 -99 -1 -6 -4 -15 -7 -21 -8 -14 -23 -68 -21 -77 1 -5 -3 -8 -10 -8 -6 0
-9 -3 -5 -6 6 -6 -45 -126 -63 -146 -6 -7 -16 -21 -23 -31 -7 -11 -28 -20 -48
-22 -19 -2 -40 -5 -46 -7 -6 -2 -12 0 -13 4 -1 4 -6 22 -11 40 -11 38 -18 62
-25 97 -3 14 -7 28 -9 32 -16 25 -23 195 -10 254 3 17 21 62 39 101 l34 71
-29 17 c-16 9 -29 13 -29 8 0 -6 -20 -30 -45 -55 -75 -76 -117 -74 -221 10
-91 74 -186 94 -287 60z"/>
</g>
</svg>
