<?xml version="1.0" standalone="no"?>
<!DOCTYPE svg PUBLIC "-//W3C//DTD SVG 20010904//EN"
 "http://www.w3.org/TR/2001/REC-SVG-20010904/DTD/svg10.dtd">
<svg version="1.0" xmlns="http://www.w3.org/2000/svg"
 width="348.000000pt" height="348.000000pt" viewBox="0 0 348.000000 348.000000"
 preserveAspectRatio="xMidYMid meet">
<metadata>
Created by potrace 1.11, written by Peter Selinger 2001-2013
</metadata>
<g transform="translate(0.000000,348.000000) scale(0.100000,-0.100000)"
fill="#000000" stroke="none">
<path d="M1555 3275 c-150 -21 -178 -26 -283 -55 -42 -12 -81 -23 -87 -24 -74
-19 -405 -167 -405 -181 0 -3 45 -26 100 -51 l99 -47 1 -503 0 -504 -122 0
-123 0 -33 -103 c-45 -141 -45 -139 26 -117 66 21 102 28 188 36 69 7 75 1 64
-66 -5 -34 -6 -35 -90 -57 -136 -35 -166 -48 -162 -69 5 -26 4 -26 53 -10 24
8 79 24 122 34 70 18 77 19 78 3 0 -9 2 -160 3 -336 l1 -320 -56 -55 c-30 -30
-88 -84 -127 -120 -40 -36 -72 -68 -72 -71 0 -3 198 -6 440 -5 396 0 438 1
427 15 -15 19 -31 37 -132 142 l-80 84 0 447 c0 245 3 449 6 453 8 7 25 10
139 25 126 17 146 20 249 40 52 11 98 17 102 14 5 -2 12 -19 18 -37 5 -18 12
-40 16 -50 6 -13 -1 -20 -29 -32 -61 -26 -160 -50 -271 -65 -38 -6 -81 -12
-95 -15 l-26 -6 1 -409 0 -409 56 -58 c141 -146 211 -222 222 -240 6 -10 -92
-13 -464 -13 -259 0 -474 -1 -476 -4 -2 -2 2 -13 9 -25 13 -21 16 -21 537 -21
288 0 522 2 520 4 -2 3 -48 51 -101 108 -237 251 -247 263 -249 288 -1 29 -1
671 0 711 1 28 3 29 106 45 49 7 193 49 243 69 33 14 37 14 46 -2 6 -10 11
-20 12 -23 0 -3 5 -16 11 -30 6 -14 23 -56 38 -95 41 -107 50 -130 51 -135 0
-3 3 -12 7 -20 3 -8 13 -40 22 -70 9 -30 19 -62 22 -70 8 -21 11 -31 17 -61 3
-14 12 -45 20 -68 9 -22 13 -41 10 -41 -2 0 0 -8 5 -17 5 -10 12 -31 15 -48 3
-16 17 -75 30 -130 24 -98 31 -127 41 -182 3 -16 10 -48 15 -73 16 -71 29
-145 54 -300 2 -14 8 -24 14 -23 6 1 50 27 99 56 48 29 142 81 208 114 103 51
157 74 314 134 l24 10 -39 32 c-60 50 -144 137 -199 202 -27 33 -52 62 -55 65
-17 17 -107 139 -145 196 -24 38 -48 74 -53 79 -43 55 -248 425 -257 465 0 3
-10 23 -22 45 -11 22 -22 45 -23 50 -3 12 -11 34 -43 112 l-25 61 83 26 c228
71 444 227 519 374 10 20 22 39 25 42 7 6 31 71 37 103 2 12 6 33 9 47 14 65
4 205 -18 245 -6 11 -10 21 -9 23 5 6 -30 76 -56 114 -89 129 -242 235 -427
296 -97 32 -121 38 -181 47 -21 4 -50 9 -64 12 -54 11 -389 10 -475 -2z m315
-141 c53 -9 42 -6 112 -27 106 -32 223 -115 291 -208 44 -58 77 -161 81 -247
10 -246 -115 -426 -378 -546 -42 -19 -76 -32 -76 -29 0 3 -6 1 -12 -5 -19 -15
-205 -65 -325 -88 -7 -1 -13 3 -14 9 -4 54 -1 938 3 943 11 10 157 30 210 28
148 -6 255 -30 336 -75 58 -33 106 -62 118 -74 33 -29 55 -45 65 -45 12 0 -46
78 -73 98 -9 7 -23 18 -30 25 -39 38 -164 90 -251 105 -75 13 -348 6 -392 -9
l-40 -14 0 -498 c0 -435 -2 -497 -15 -498 -8 0 -33 -3 -55 -5 l-40 -5 0 545
c0 350 4 548 10 554 22 21 135 54 220 66 91 12 173 12 255 0z"/>
<path d="M2780 2996 c0 -4 16 -35 35 -67 19 -33 35 -64 35 -68 0 -5 8 -26 17
-47 9 -22 17 -41 18 -44 1 -3 4 -18 8 -35 4 -16 10 -41 13 -55 6 -29 5 -147
-1 -181 -3 -13 -8 -37 -10 -53 -3 -16 -11 -38 -17 -50 -6 -11 -10 -22 -9 -24
7 -7 -25 -71 -63 -127 -50 -75 -135 -160 -214 -214 -57 -39 -200 -113 -269
-141 -27 -10 -31 -15 -23 -30 5 -9 6 -20 3 -24 -3 -3 0 -6 7 -6 7 0 10 -3 7
-7 -4 -3 -3 -11 1 -17 5 -6 19 -38 32 -71 26 -66 159 -332 190 -380 11 -16 24
-39 29 -50 12 -26 114 -175 171 -249 121 -158 305 -336 443 -428 43 -29 42
-31 -23 -48 -198 -51 -604 -239 -738 -341 l-23 -17 23 -16 c18 -13 24 -13 37
-2 17 14 118 73 212 124 147 79 565 242 621 242 37 0 25 21 -34 61 -156 105
-341 275 -453 414 -26 33 -51 62 -54 65 -3 3 -10 12 -16 22 -5 9 -33 49 -61
90 -71 103 -145 230 -200 345 -25 54 -47 103 -49 108 -1 6 -5 17 -9 25 -3 8
-17 44 -29 80 l-24 64 111 56 c61 31 136 73 166 95 67 47 176 155 212 210 31
45 79 150 84 180 2 11 6 31 9 45 11 42 12 191 3 239 -5 25 -11 57 -14 70 -3
13 -9 32 -14 41 -5 10 -6 20 -3 24 3 3 1 6 -6 6 -7 0 -9 5 -6 10 3 6 1 10 -6
10 -7 0 -10 3 -6 6 3 3 -8 28 -25 56 -32 52 -88 118 -88 104z"/>
</g>
</svg>
